<svg width="270" height="30" viewBox="0 0 270 30" fill="none" xmlns="http://www.w3.org/2000/svg">
<path d="M15 30C23.2843 30 30 23.2843 30 15C30 6.71573 23.2843 0 15 0C6.71573 0 0 6.71573 0 15C0 23.2843 6.71573 30 15 30Z" fill="#E44D25"/>
<path d="M9.62903 5.6976V8.21373H10.4516L10.4569 7.34276L11.2258 7.34808V8.21373H12.0484V5.6976H11.2152V6.52018H10.4516V5.6976H9.62903Z" fill="white"/>
<path d="M12.4267 5.6976V6.52502H13.169V8.21373H13.9717V6.52163H14.7096V5.6976H12.4267Z" fill="white"/>
<path d="M15.1258 5.6976V8.21373H15.9193V6.95567L16.5 7.87502L17.0971 6.95567V8.21373H17.9143V5.6976H17.054L16.5 6.61696L15.9682 5.6976H15.1258Z" fill="white"/>
<path d="M18.33 5.6976V8.21373H20.3158V7.36744H19.1612V5.6976H18.33Z" fill="white"/>
<path d="M20.3952 22.8024L21.5565 9.3992H21.5807H8.41937L9.58066 22.8024L15 24.3024L20.3952 22.8024Z" fill="white"/>
<path d="M19.1372 12.1573H10.8412L11.3952 17.0928H17.0991L16.9113 19.2702L14.9889 19.8136L13.2339 19.2702L13.0888 18.0121H11.3952L11.6855 20.5283L15.0726 21.4481L18.4597 20.5283L18.7984 15.496H12.8952L12.7259 13.875L18.992 13.8024L19.1372 12.1573Z" fill="#E44D25"/>
<path d="M45 30C53.2843 30 60 23.2843 60 15C60 6.71573 53.2843 0 45 0C36.7157 0 30 6.71573 30 15C30 23.2843 36.7157 30 45 30Z" fill="#0C73B8"/>
<path d="M50.3952 22.8024L51.5565 9.3992H51.5807H38.4194L39.5807 22.8024L45 24.3024L50.3952 22.8024Z" fill="white"/>
<path d="M41.5162 6.13889V8.33227H43.3065V7.62776H42.2904V6.91308H43.3065V6.13889H41.5162Z" fill="white"/>
<path d="M45.9253 6.13889H44.0807V6.91308L44.8549 7.63889H44.0807V8.31631H45.9253V7.63889L45.1937 6.91308H45.9195L45.9253 6.13889Z" fill="white"/>
<path d="M48.4897 6.13889H46.6451V6.91308L47.4193 7.63889H46.6451V8.31631H48.4897V7.63889L47.758 6.91308H48.4839L48.4897 6.13889Z" fill="white"/>
<path d="M40.9002 12.1471L41.117 13.7981H45.2647L41.3062 15.4757L41.3875 17.0724H47.027L46.9084 19.2368L45.0949 19.7516L43.1734 19.2126V17.986L41.5229 18.0194L41.7392 20.4552L45.0949 21.4292L48.4239 20.4823L48.8023 15.5028L45.0678 15.5086L48.992 13.7981L49.0733 12.1471H40.9002Z" fill="#0C73B8"/>
<path d="M75 30C83.2843 30 90 23.2843 90 15C90 6.71573 83.2843 0 75 0C66.7157 0 60 6.71573 60 15C60 23.2843 66.7157 30 75 30Z" fill="#EFC025"/>
<path d="M80.3952 22.8024L81.5565 9.3992H81.5807H68.4194L69.5807 22.8024L75 24.3024L80.3952 22.8024Z" fill="white"/>
<path d="M73.3578 12.1723V19.5257L72.3973 19.2939V18.3663L71.205 18.1012V20.3865L74.6497 21.2812L74.6313 12.1573L73.3578 12.1723Z" fill="#F1C026"/>
<path d="M75.5739 12.1723V17.535L77.73 17.1407L77.6308 19.095L75.5739 19.7729V21.2478L78.6247 20.5524L78.8565 15.915H76.935V13.5634H78.8565L79.0883 12.1723H75.5739Z" fill="#F1C026"/>
<path d="M77.4581 5.7034H75.3378V6.59372L76.2276 7.42792H75.3378V8.20695H77.4581V7.42792L76.6171 6.59372H77.4513L77.4581 5.7034Z" fill="white"/>
<path d="M74.1707 5.7034V7.38437H72.9421V8.22146H75.0431V5.7034H74.1707Z" fill="white"/>
<path d="M105 30C113.284 30 120 23.2843 120 15C120 6.71573 113.284 0 105 0C96.7157 0 90 6.71573 90 15C90 23.2843 96.7157 30 105 30Z" fill="#21609B"/>
<path d="M105.514 15.7989C103.367 15.316 101.735 14.1455 100.846 12.0818C100.335 10.8944 100.373 9.67504 100.803 8.41553C100.738 8.45182 100.717 8.45811 100.704 8.47166C100.675 8.50117 100.65 8.53359 100.624 8.56601C99.6755 9.74085 99.4229 11.0826 99.7476 12.526C100.386 15.3673 103.04 17.3826 105.954 17.2757C107.702 17.2118 109.09 16.5029 110.03 14.9947C110.068 14.9342 110.091 14.865 110.161 14.7146C108.725 15.8434 107.187 16.1754 105.514 15.7994L105.514 15.7989Z" fill="white"/>
<path d="M105.324 11.9574C104.09 11.0918 103.012 9.3097 103.656 7.33792C102.871 8.32308 102.653 9.4147 103.008 10.6002C103.616 12.6295 105.639 13.9316 107.735 13.6573C108.742 13.5257 109.618 13.1381 110.228 12.2807C110.287 12.1974 110.334 12.105 110.386 12.017C108.53 13.351 106.66 12.8947 105.324 11.9579V11.9574Z" fill="white"/>
<path d="M106.741 10.037C107.785 10.801 109.419 10.741 110.279 9.54244C109.14 10.2663 108.051 10.2097 107.04 9.40889C106.163 8.71405 105.864 7.7797 106.137 6.61502C105.312 7.58615 105.624 9.2197 106.741 10.037H106.741Z" fill="white"/>
<path d="M101.54 18.7969C100.723 18.5956 99.9227 18.9281 99.5767 19.6921C99.3982 20.086 99.2932 20.534 99.2564 20.9661C99.2013 21.6174 99.5642 22.0635 100.193 22.0635C100.822 22.0635 101.645 22.0645 102.274 22.0645C102.322 21.9058 102.373 21.6643 102.422 21.4873C102.274 21.4839 102.225 21.4839 102.032 21.4829C102.08 21.3382 102.116 21.225 102.146 21.1263C102.246 20.7963 102.374 20.4702 102.434 20.1324C102.549 19.4773 102.182 18.9552 101.54 18.7969ZM101.669 20.0995C101.588 20.5084 101.477 20.9153 101.328 21.3034C101.291 21.3997 101.16 21.4839 100.911 21.4742C100.144 21.4742 99.9513 21.226 100.101 20.4784C100.141 20.2752 100.199 20.0685 100.289 19.8842C100.452 19.5552 100.746 19.4187 101.105 19.4332C101.459 19.4477 101.737 19.7531 101.669 20.0995Z" fill="white"/>
<path d="M106.726 19.4516C106.338 19.4516 105.855 19.6451 105.613 19.9839C105.371 20.3226 105.34 20.6148 105.274 21.1451C105.226 21.5322 105.467 22.0645 105.863 22.0645C106.338 22.0645 107.009 22.064 107.5 22.0756L107.608 21.4858C107.227 21.4858 106.886 21.495 106.532 21.4839C106.28 21.4761 105.825 21.5797 105.903 21L107.645 21.0077L107.742 20.6129C107.838 20.129 107.548 19.4516 106.726 19.4516ZM106.161 20.4542C106.161 20.1774 106.387 20.0322 106.677 20.0322C106.919 20.0322 107.155 20.1774 107.155 20.4542H106.161Z" fill="white"/>
<path d="M104.653 19.4647C104.5 20.0806 104.379 20.716 104.245 21.1877C104.161 21.4839 103.92 21.4422 103.762 21.4422C103.484 21.4422 103.361 21.3377 103.421 21.0208C103.518 20.5069 103.618 19.9935 103.72 19.4656H103.022C103.022 19.4656 102.766 20.9042 102.667 21.4969C102.613 21.8226 102.903 22.0645 103.29 22.0645H104.742C104.893 21.3668 105.163 20.1745 105.314 19.4647H104.653Z" fill="white"/>
<path d="M111.951 19.0645C111.765 19.3466 111.411 19.8121 111.212 20.0864C111.073 20.279 110.858 20.5795 110.693 20.8064L110.645 20.2742C110.451 20.2742 110.306 20.2742 110.016 20.2781C110.064 20.6613 110.161 21.3871 110.161 21.3871C110.161 21.3871 110.113 21.7258 110.05 22.1129H110.79L110.887 21.4355C110.926 21.3823 112.625 19.1632 112.677 19.0766L111.951 19.0645Z" fill="white"/>
<path d="M109.905 19.4506C109.543 19.4526 109.181 19.4545 108.818 19.4555C108.571 19.4561 108.421 19.5811 108.367 19.8305C108.345 19.9326 108.321 20.0347 108.3 20.1368C108.168 20.7726 108.036 21.4084 107.899 22.0747C108.025 22.0747 108.47 22.0761 108.564 22.0747L109.048 20.1111C109.489 20.1222 110.173 20.1387 110.635 20.1387C110.596 19.5484 110.548 19.4506 109.905 19.4506H109.905Z" fill="white"/>
<path d="M97.8793 21.9905C97.7739 22.4032 97.6819 22.5106 97.2963 22.4966C97.2416 22.6936 97.1671 22.9094 97.0906 23.1348C97.3868 23.1348 97.5585 23.1358 97.7671 23.1358C98.1126 23.1358 98.3545 22.9839 98.4464 22.6089C98.641 21.8473 98.8176 21.0813 99.0082 20.2906H98.2752L97.8793 21.991V21.9905Z" fill="white"/>
<path d="M98.3497 20.0758H99.0566L99.195 19.4647H98.5035C98.4556 19.6664 98.3976 19.875 98.3502 20.0758H98.3497Z" fill="white"/>
<path d="M135 30C143.284 30 150 23.2843 150 15C150 6.71573 143.284 0 135 0C126.716 0 120 6.71573 120 15C120 23.2843 126.716 30 135 30Z" fill="#61DAFB"/>
<path d="M127.604 23.8577V21.509H128.04V23.8577H127.604ZM128.017 22.9979V22.5958H128.439C128.541 22.5958 128.62 22.5658 128.676 22.5058C128.732 22.4458 128.76 22.3616 128.76 22.2537C128.76 22.1458 128.732 22.0602 128.676 22.0006C128.62 21.9411 128.541 21.9111 128.439 21.9111H128.024L127.984 21.509H128.439C128.692 21.509 128.887 21.571 129.025 21.6944C129.163 21.8177 129.231 21.9929 129.231 22.2203C129.231 22.4661 129.163 22.6573 129.025 22.7932C128.887 22.9292 128.692 22.9974 128.439 22.9974H128.017V22.9979ZM128.796 23.8577L128.353 22.7531H128.813L129.317 23.8577H128.796H128.796Z" fill="white"/>
<path d="M129.621 23.8577V21.509H130.058V23.8577H129.621ZM129.621 21.9111V21.509H131.232V21.9111H129.621ZM129.621 22.8837V22.4802H130.935V22.8837H129.621ZM129.621 23.8577V23.4556H131.232V23.8577H129.621Z" fill="white"/>
<path d="M131.416 23.8577L132.094 21.509H132.63L133.307 23.8577H132.836L132.377 22.0834H132.346L131.887 23.8577H131.416H131.416ZM131.758 23.4131V23.0095H132.949V23.4131H131.758Z" fill="white"/>
<path d="M134.591 23.8907C133.843 23.8907 133.468 23.4871 133.468 22.68C133.468 22.2973 133.562 22.0011 133.751 21.7911C133.939 21.5811 134.206 21.4761 134.551 21.4761C134.706 21.4761 134.844 21.5013 134.964 21.5511C135.084 21.6015 135.175 21.6726 135.237 21.7655L134.992 22.0863C134.942 22.0244 134.88 21.9769 134.803 21.9431C134.727 21.9097 134.643 21.8927 134.554 21.8927C134.365 21.8927 134.213 21.9595 134.099 22.0936C133.984 22.2276 133.927 22.4173 133.927 22.6636C133.927 23.204 134.167 23.474 134.647 23.474C134.807 23.474 134.964 23.4411 135.12 23.3748L135.196 23.7784C135.004 23.8534 134.803 23.8907 134.591 23.8907H134.591Z" fill="white"/>
<path d="M135.443 21.9111V21.509H137.219V21.9111H135.443ZM136.113 23.8577V21.509H136.549V23.8577H136.113Z" fill="white"/>
<path d="M137.977 23.8906C137.893 23.8906 137.822 23.8611 137.763 23.8021C137.705 23.743 137.676 23.6724 137.676 23.5896C137.676 23.5069 137.705 23.4348 137.763 23.3762C137.822 23.3177 137.893 23.2887 137.977 23.2887C138.061 23.2887 138.132 23.3177 138.19 23.3762C138.249 23.4348 138.278 23.5059 138.278 23.5896C138.278 23.6733 138.249 23.743 138.19 23.8021C138.132 23.8611 138.061 23.8906 137.977 23.8906Z" fill="white"/>
<path d="M139.58 23.8906C139.313 23.8906 139.107 23.8176 138.962 23.6714C138.817 23.5253 138.745 23.3206 138.745 23.0569H139.2C139.2 23.189 139.233 23.2921 139.301 23.3652C139.369 23.4387 139.465 23.475 139.588 23.475C139.711 23.475 139.809 23.4387 139.876 23.3656C139.944 23.2926 139.978 23.19 139.978 23.0564V21.5085H140.415V23.0564C140.415 23.3211 140.341 23.5263 140.194 23.6714C140.047 23.8166 139.842 23.8897 139.579 23.8897L139.58 23.8906ZM139.441 21.9111V21.509H140.212V21.9111H139.441Z" fill="white"/>
<path d="M141.526 23.8907C141.393 23.8907 141.264 23.8795 141.138 23.8568C141.012 23.834 140.9 23.8026 140.801 23.7619L140.86 23.3153C140.982 23.3661 141.102 23.4053 141.222 23.4329C141.341 23.4605 141.452 23.474 141.553 23.474C141.671 23.474 141.762 23.4532 141.825 23.4111C141.887 23.369 141.919 23.309 141.919 23.2307C141.919 23.1281 141.855 23.0463 141.725 22.9858L141.388 22.8223C141.222 22.7405 141.092 22.6398 141.001 22.5198C140.91 22.3998 140.864 22.2668 140.864 22.1211C140.864 21.916 140.931 21.7573 141.067 21.645C141.202 21.5327 141.394 21.4761 141.642 21.4761C141.786 21.4761 141.924 21.5013 142.053 21.5521C142.183 21.6029 142.297 21.676 142.398 21.7723L142.097 22.1177C142.021 22.0452 141.944 21.989 141.867 21.9498C141.79 21.9107 141.716 21.8913 141.644 21.8913C141.547 21.8913 141.471 21.9121 141.418 21.9532C141.363 21.9944 141.337 22.0544 141.337 22.1327C141.337 22.1845 141.356 22.2334 141.394 22.2798C141.432 22.3263 141.486 22.3679 141.557 22.4057L141.874 22.5692C142.04 22.6553 142.168 22.7555 142.257 22.8702C142.347 22.9848 142.392 23.1077 142.392 23.2389C142.392 23.4474 142.317 23.6081 142.167 23.7208C142.017 23.834 141.804 23.8902 141.527 23.8902L141.526 23.8907Z" fill="white"/>
<path d="M135 14.2969C135.788 14.2969 136.426 13.6585 136.426 12.871C136.426 12.0834 135.788 11.445 135 11.445C134.212 11.445 133.574 12.0834 133.574 12.871C133.574 13.6585 134.212 14.2969 135 14.2969Z" fill="white"/>
<path d="M140.504 10.5595C140.203 10.4448 139.882 10.3403 139.544 10.2474C139.633 9.90823 139.703 9.57823 139.754 9.26032C140.017 7.61758 139.734 6.46597 138.957 6.01742C138.18 5.56887 137.041 5.89984 135.75 6.94887C135.5 7.1521 135.249 7.37806 135 7.62387C134.75 7.37806 134.5 7.1521 134.25 6.94887C132.959 5.89935 131.82 5.56887 131.043 6.01742C130.266 6.46597 129.983 7.61758 130.246 9.26032C130.297 9.57823 130.367 9.90823 130.455 10.2474C130.118 10.3408 129.796 10.4448 129.496 10.5595C127.942 11.1527 127.086 11.9739 127.086 12.871C127.086 13.7681 127.942 14.5892 129.496 15.1824C129.797 15.2971 130.118 15.4016 130.455 15.4945C130.367 15.8337 130.297 16.1637 130.246 16.4816C129.983 18.1244 130.266 19.276 131.043 19.7245C131.269 19.8552 131.526 19.9195 131.808 19.9195C132.496 19.9195 133.335 19.5368 134.25 18.7926C134.5 18.5894 134.751 18.3634 135 18.1176C135.25 18.3634 135.5 18.5894 135.75 18.7926C136.665 19.5363 137.504 19.9195 138.192 19.9195C138.474 19.9195 138.731 19.8552 138.957 19.7245C139.734 19.276 140.017 18.1244 139.754 16.4816C139.703 16.1637 139.633 15.8337 139.544 15.4945C139.882 15.4011 140.204 15.2971 140.504 15.1824C142.058 14.5892 142.914 13.7681 142.914 12.871C142.914 11.9739 142.058 11.1527 140.504 10.5595ZM136.082 7.35677C136.896 6.69532 137.631 6.3479 138.187 6.3479C138.378 6.3479 138.549 6.38903 138.694 6.47274C139.26 6.79984 139.457 7.78548 139.234 9.1771C139.186 9.48 139.119 9.79452 139.035 10.1177C138.34 9.95565 137.584 9.8371 136.793 9.76597C136.335 9.11613 135.855 8.52145 135.367 7.99984C135.605 7.76516 135.844 7.54984 136.082 7.35677H136.082ZM137.302 14.2002C137.047 14.6424 136.779 15.0677 136.502 15.4727C136.013 15.51 135.51 15.5294 135 15.5294C134.489 15.5294 133.987 15.51 133.498 15.4727C133.221 15.0682 132.953 14.6424 132.698 14.2002C132.442 13.7579 132.208 13.3132 131.996 12.871C132.208 12.4287 132.442 11.984 132.698 11.5418C132.953 11.0995 133.221 10.6742 133.498 10.2692C133.987 10.2319 134.489 10.2126 135 10.2126C135.51 10.2126 136.013 10.2319 136.502 10.2692C136.779 10.6737 137.047 11.0995 137.302 11.5418C137.558 11.984 137.792 12.4287 138.004 12.871C137.792 13.3132 137.558 13.7579 137.302 14.2002ZM138.286 13.4879C138.527 14.0434 138.73 14.5902 138.891 15.1176C138.354 15.2419 137.778 15.3392 137.177 15.4079C137.376 15.1026 137.57 14.7871 137.757 14.4629C137.944 14.1387 138.12 13.8131 138.285 13.4879H138.286ZM135 17.3647C134.624 16.9611 134.251 16.5121 133.891 16.0253C134.256 16.0452 134.626 16.0553 135 16.0553C135.374 16.0553 135.744 16.0452 136.109 16.0253C135.748 16.5116 135.376 16.9611 135 17.3647ZM132.823 15.4084C132.221 15.3397 131.646 15.2419 131.108 15.1181C131.269 14.5906 131.473 14.0434 131.714 13.4884C131.879 13.8135 132.055 14.1397 132.242 14.4634C132.429 14.7871 132.623 15.1031 132.822 15.4084H132.823ZM131.714 12.254C131.473 11.6985 131.27 11.1518 131.109 10.6244C131.646 10.5 132.222 10.4027 132.823 10.334C132.624 10.6394 132.43 10.9548 132.243 11.279C132.056 11.6032 131.88 11.9289 131.715 12.254H131.714ZM135 8.37726C135.376 8.78081 135.749 9.22984 136.109 9.71661C135.744 9.69677 135.374 9.68661 135 9.68661C134.626 9.68661 134.256 9.69677 133.891 9.71661C134.252 9.23032 134.624 8.78081 135 8.37726ZM137.758 11.2785C137.571 10.9544 137.377 10.6389 137.178 10.3335C137.779 10.4023 138.355 10.5 138.892 10.6239C138.731 11.1513 138.528 11.6985 138.287 12.2535C138.122 11.9284 137.946 11.6023 137.759 11.2785H137.758ZM130.766 9.17661C130.543 7.785 130.739 6.79935 131.306 6.47226C131.451 6.38855 131.621 6.34742 131.813 6.34742C132.369 6.34742 133.105 6.69532 133.918 7.35629C134.156 7.54984 134.395 7.76516 134.633 7.99936C134.145 8.52048 133.665 9.11516 133.208 9.76548C132.416 9.83661 131.661 9.95516 130.965 10.1173C130.881 9.79355 130.814 9.47903 130.766 9.17661H130.766ZM129.684 14.6908C128.367 14.1881 127.612 13.5247 127.612 12.871C127.612 12.2173 128.367 11.5539 129.684 11.0511C129.97 10.9418 130.276 10.8426 130.598 10.7535C130.806 11.4368 131.081 12.15 131.414 12.871C131.081 13.5919 130.805 14.3052 130.598 14.9884C130.276 14.8994 129.97 14.8002 129.684 14.6908ZM133.918 18.3852C132.824 19.274 131.872 19.5963 131.306 19.2692C130.74 18.9421 130.543 17.9565 130.766 16.5648C130.814 16.2619 130.881 15.9474 130.965 15.6242C131.66 15.7863 132.416 15.9048 133.207 15.976C133.665 16.6258 134.145 17.2205 134.633 17.7421C134.395 17.9768 134.156 18.1921 133.918 18.3852H133.918ZM139.234 16.5653C139.457 17.9569 139.26 18.9426 138.694 19.2697C138.128 19.5968 137.175 19.2745 136.082 18.3856C135.844 18.1921 135.605 17.9768 135.367 17.7426C135.855 17.2215 136.335 16.6268 136.792 15.9769C137.584 15.9058 138.339 15.7873 139.034 15.6252C139.119 15.9489 139.185 16.2634 139.234 16.5658L139.234 16.5653ZM140.316 14.6908C140.03 14.8002 139.724 14.8994 139.402 14.9884C139.194 14.3052 138.919 13.5919 138.585 12.871C138.919 12.15 139.195 11.4368 139.402 10.7535C139.724 10.8426 140.03 10.9418 140.316 11.0511C141.633 11.5539 142.388 12.2173 142.388 12.871C142.388 13.5247 141.633 14.1881 140.316 14.6908Z" fill="white"/>
<path d="M165 30C173.284 30 180 23.2843 180 15C180 6.71573 173.284 0 165 0C156.716 0 150 6.71573 150 15C150 23.2843 156.716 30 165 30Z" fill="#41B883"/>
<path d="M169.455 6.72583L165 14.4421L160.545 6.72583H157.765L165 19.2581L172.236 6.72583H169.455Z" fill="white"/>
<path d="M166.677 6.72583L165 9.62906L163.324 6.72583H160.545L165 14.4421L169.455 6.72583H166.677Z" fill="#35495E"/>
<path d="M160.038 23.3206L159.432 20.9719H159.883L160.363 22.9282H160.393L160.872 20.9719H161.324L160.717 23.3206H160.039H160.038Z" fill="white"/>
<path d="M162.355 23.3535C161.834 23.3535 161.573 23.0913 161.573 22.5663V20.9719H162.009V22.5663C162.009 22.6887 162.038 22.7806 162.094 22.8426C162.151 22.9045 162.24 22.935 162.361 22.935C162.596 22.935 162.714 22.8121 162.714 22.5663V20.9719H163.15V22.5663C163.15 22.8285 163.082 23.0255 162.947 23.1566C162.812 23.2877 162.615 23.3535 162.355 23.3535H162.355Z" fill="white"/>
<path d="M163.591 23.3206V20.9719H164.027V23.3206H163.591ZM163.591 21.374V20.9719H165.202V21.374H163.591ZM163.591 22.3466V21.9431H164.904V22.3466H163.591ZM163.591 23.3206V22.9185H165.202V23.3206H163.591Z" fill="white"/>
<path d="M165.992 23.3536C165.909 23.3536 165.838 23.324 165.779 23.265C165.72 23.206 165.691 23.1353 165.691 23.0526C165.691 22.9698 165.72 22.8977 165.779 22.8392C165.838 22.7806 165.909 22.7516 165.992 22.7516C166.076 22.7516 166.147 22.7806 166.206 22.8392C166.264 22.8977 166.293 22.9689 166.293 23.0526C166.293 23.1363 166.264 23.206 166.206 23.265C166.147 23.324 166.076 23.3536 165.992 23.3536Z" fill="white"/>
<path d="M167.596 23.3535C167.329 23.3535 167.123 23.2805 166.978 23.1343C166.832 22.9882 166.76 22.7835 166.76 22.5198H167.215C167.215 22.6519 167.249 22.755 167.317 22.828C167.385 22.9016 167.48 22.9379 167.604 22.9379C167.727 22.9379 167.824 22.9016 167.892 22.8285C167.96 22.7555 167.994 22.6529 167.994 22.5193V20.9714H168.43V22.5193C168.43 22.784 168.357 22.9892 168.21 23.1343C168.062 23.2795 167.858 23.3526 167.595 23.3526L167.596 23.3535ZM167.457 21.374V20.9719H168.227V21.374H167.457Z" fill="white"/>
<path d="M169.542 23.3535C169.409 23.3535 169.279 23.3424 169.154 23.3197C169.028 23.2969 168.916 23.2655 168.816 23.2248L168.876 22.7782C168.997 22.829 169.118 22.8682 169.237 22.8958C169.357 22.9234 169.468 22.9369 169.569 22.9369C169.687 22.9369 169.777 22.9161 169.84 22.874C169.903 22.8319 169.935 22.7719 169.935 22.6935C169.935 22.591 169.87 22.5092 169.741 22.4487L169.404 22.2852C169.237 22.2034 169.108 22.1027 169.017 21.9827C168.925 21.8627 168.879 21.7297 168.879 21.584C168.879 21.3789 168.947 21.2202 169.082 21.1079C169.218 20.9956 169.41 20.939 169.658 20.939C169.802 20.939 169.939 20.9642 170.069 21.015C170.198 21.0658 170.313 21.1389 170.414 21.2352L170.113 21.5806C170.037 21.5081 169.96 21.4519 169.883 21.4127C169.805 21.3735 169.731 21.3542 169.66 21.3542C169.562 21.3542 169.487 21.375 169.433 21.4161C169.379 21.4573 169.352 21.5173 169.352 21.5956C169.352 21.6474 169.371 21.6963 169.41 21.7427C169.448 21.7892 169.502 21.8308 169.573 21.8685L169.89 22.0321C170.056 22.1182 170.183 22.2184 170.273 22.3331C170.363 22.4477 170.408 22.5706 170.408 22.7018C170.408 22.9103 170.333 23.071 170.183 23.1837C170.033 23.2969 169.819 23.3531 169.543 23.3531L169.542 23.3535Z" fill="white"/>
<path d="M195 30C203.284 30 210 23.2843 210 15C210 6.71573 203.284 0 195 0C186.716 0 180 6.71573 180 15C180 23.2843 186.716 30 195 30Z" fill="#CC6798"/>
<path d="M187.773 21.6173C187.734 21.4493 187.602 21.34 187.371 21.34C187.133 21.34 186.961 21.465 186.965 21.6251C186.961 21.7501 187.063 21.84 187.297 21.8947L187.633 21.9728C188.023 22.0587 188.211 22.2462 188.215 22.547C188.211 22.9298 187.891 23.2032 187.348 23.2032C186.84 23.2032 186.535 22.9767 186.484 22.5822H186.91C186.945 22.7736 187.094 22.8673 187.344 22.8673C187.613 22.8673 187.785 22.7579 187.789 22.5782C187.785 22.4415 187.684 22.3517 187.461 22.3009L187.129 22.2306C186.746 22.1447 186.547 21.9415 186.547 21.6486C186.547 21.2697 186.875 21.0118 187.367 21.0118C187.84 21.0118 188.133 21.254 188.176 21.6173H187.773ZM188.523 22.5626C188.523 22.0782 188.934 21.9532 189.316 21.9259C189.457 21.9161 189.775 21.8986 189.875 21.8947L189.871 21.7267C189.871 21.4884 189.727 21.3478 189.441 21.3478C189.195 21.3478 189.047 21.4611 189.004 21.6173H188.59C188.629 21.2657 188.957 21.0118 189.457 21.0118C189.793 21.0118 190.289 21.1368 190.289 21.7501V23.1603H189.883V22.8712H189.867C189.785 23.0314 189.59 23.2072 189.238 23.2072C188.836 23.2072 188.523 22.9767 188.523 22.5626ZM188.93 22.5665C188.93 22.7697 189.098 22.8751 189.332 22.8751C189.672 22.8751 189.875 22.6486 189.875 22.3947V22.1993L189.375 22.2345C189.102 22.254 188.93 22.3556 188.93 22.5665ZM191.984 21.6173C191.945 21.4493 191.813 21.34 191.582 21.34C191.344 21.34 191.172 21.465 191.176 21.6251C191.172 21.7501 191.273 21.84 191.508 21.8947L191.844 21.9728C192.234 22.0587 192.422 22.2462 192.426 22.547C192.422 22.9298 192.102 23.2032 191.559 23.2032C191.051 23.2032 190.746 22.9767 190.695 22.5822H191.121C191.156 22.7736 191.305 22.8673 191.555 22.8673C191.824 22.8673 191.996 22.7579 192 22.5782C191.996 22.4415 191.895 22.3517 191.672 22.3009L191.34 22.2306C190.957 22.1447 190.758 21.9415 190.758 21.6486C190.758 21.2697 191.086 21.0118 191.578 21.0118C192.051 21.0118 192.344 21.254 192.387 21.6173H191.984ZM194.023 21.6173C193.984 21.4493 193.852 21.34 193.621 21.34C193.383 21.34 193.211 21.465 193.215 21.6251C193.211 21.7501 193.313 21.84 193.547 21.8947L193.883 21.9728C194.273 22.0587 194.461 22.2462 194.465 22.547C194.461 22.9298 194.141 23.2032 193.598 23.2032C193.09 23.2032 192.785 22.9767 192.734 22.5822H193.16C193.195 22.7736 193.344 22.8673 193.594 22.8673C193.863 22.8673 194.035 22.7579 194.039 22.5782C194.035 22.4415 193.934 22.3517 193.711 22.3009L193.379 22.2306C192.996 22.1447 192.797 21.9415 192.797 21.6486C192.797 21.2697 193.125 21.0118 193.617 21.0118C194.09 21.0118 194.383 21.254 194.426 21.6173H194.023ZM195.949 20.1993L195.039 23.5861H194.668L195.578 20.1993H195.949ZM197.449 21.6173C197.41 21.4493 197.277 21.34 197.047 21.34C196.809 21.34 196.637 21.465 196.641 21.6251C196.637 21.7501 196.738 21.84 196.973 21.8947L197.309 21.9728C197.699 22.0587 197.887 22.2462 197.891 22.547C197.887 22.9298 197.566 23.2032 197.023 23.2032C196.516 23.2032 196.211 22.9767 196.16 22.5822H196.586C196.621 22.7736 196.77 22.8673 197.02 22.8673C197.289 22.8673 197.461 22.7579 197.465 22.5782C197.461 22.4415 197.359 22.3517 197.137 22.3009L196.805 22.2306C196.422 22.1447 196.223 21.9415 196.223 21.6486C196.223 21.2697 196.551 21.0118 197.043 21.0118C197.516 21.0118 197.809 21.254 197.852 21.6173H197.449ZM199.195 23.2032C198.578 23.2032 198.203 22.7462 198.203 22.1095C198.203 21.4611 198.59 21.0118 199.188 21.0118C199.672 21.0118 200.023 21.297 200.066 21.7267H199.66C199.617 21.5275 199.457 21.3595 199.195 21.3595C198.852 21.3595 198.621 21.6447 198.621 22.0978C198.621 22.5626 198.848 22.8478 199.195 22.8478C199.43 22.8478 199.609 22.7189 199.66 22.4884H200.066C200.02 22.8986 199.695 23.2032 199.195 23.2032ZM201.652 21.6173C201.613 21.4493 201.481 21.34 201.25 21.34C201.012 21.34 200.84 21.465 200.844 21.6251C200.84 21.7501 200.941 21.84 201.176 21.8947L201.512 21.9728C201.902 22.0587 202.09 22.2462 202.094 22.547C202.09 22.9298 201.77 23.2032 201.227 23.2032C200.719 23.2032 200.414 22.9767 200.363 22.5822H200.789C200.824 22.7736 200.973 22.8673 201.223 22.8673C201.492 22.8673 201.664 22.7579 201.668 22.5782C201.664 22.4415 201.563 22.3517 201.34 22.3009L201.008 22.2306C200.625 22.1447 200.426 21.9415 200.426 21.6486C200.426 21.2697 200.754 21.0118 201.246 21.0118C201.719 21.0118 202.012 21.254 202.055 21.6173H201.652ZM203.691 21.6173C203.652 21.4493 203.52 21.34 203.289 21.34C203.051 21.34 202.879 21.465 202.883 21.6251C202.879 21.7501 202.981 21.84 203.215 21.8947L203.551 21.9728C203.941 22.0587 204.129 22.2462 204.133 22.547C204.129 22.9298 203.809 23.2032 203.266 23.2032C202.758 23.2032 202.453 22.9767 202.402 22.5822H202.828C202.863 22.7736 203.012 22.8673 203.262 22.8673C203.531 22.8673 203.703 22.7579 203.707 22.5782C203.703 22.4415 203.602 22.3517 203.379 22.3009L203.047 22.2306C202.664 22.1447 202.465 21.9415 202.465 21.6486C202.465 21.2697 202.793 21.0118 203.285 21.0118C203.758 21.0118 204.051 21.254 204.094 21.6173H203.691Z" fill="white"/>
<path d="M194.439 16.8445C194.493 17.038 194.562 17.2292 194.778 17.294C195.002 17.3612 195.146 17.2148 195.283 17.0724C195.438 16.9117 195.557 16.7237 195.664 16.5245C196.168 15.5862 196.626 14.6255 197.016 13.6232C197.047 13.6488 197.061 13.656 197.066 13.6664C197.632 15.0447 197.628 15.0399 196.719 16.1373C196.539 16.3541 196.191 16.5757 196.393 16.9053C196.598 17.2396 196.972 17.0676 197.257 16.9884C198.388 16.6725 198.786 15.8638 198.423 14.9839C198.376 14.8703 198.359 14.7575 198.428 14.6423C198.737 14.1264 199.043 13.6088 199.373 13.0545C199.471 13.4464 199.544 13.8088 199.72 14.128C199.834 14.3351 199.774 14.4575 199.619 14.6015C199.259 14.9367 198.971 15.3294 198.869 15.827C198.762 16.3461 199.036 16.5997 199.524 16.4365C199.731 16.3669 199.936 16.2709 200.119 16.1501C200.606 15.8302 200.978 15.411 200.798 14.7751C200.678 14.3479 200.883 14.276 201.192 14.228C201.281 14.2136 201.37 14.1888 201.46 14.1808C202.294 14.1136 203.106 14.1656 203.744 14.8079C204.226 15.2934 204.193 15.8662 203.704 16.3277C203.639 16.3885 203.498 16.4141 203.559 16.5621C204.185 16.4381 204.564 15.8534 204.431 15.2142C204.275 14.4719 203.8 14.0104 203.127 13.7608C202.352 13.4736 201.568 13.516 200.811 13.8312C200.563 13.9344 200.475 13.8648 200.369 13.6496C200.1 13.0985 200.061 12.5426 200.257 11.9618C200.3 11.8362 200.41 11.6946 200.24 11.5707C199.947 11.3579 199.303 11.5691 199.215 11.9242C199.009 12.7593 198.53 13.452 198.122 14.1984C197.789 13.6808 197.744 13.2121 197.946 12.4706C197.98 12.3458 198.062 12.2218 197.945 12.1018C197.749 11.9034 197.035 12.0402 196.951 12.3082C196.634 13.3193 196.152 14.2584 195.738 15.2262C195.598 15.5542 195.481 15.9022 195.193 16.2341C195.187 15.963 195.19 15.771 195.239 15.5766C195.361 15.0911 195.471 14.6015 195.596 14.116C195.668 13.836 195.529 13.6624 195.294 13.7024C195.012 13.7504 195.081 13.632 195.082 13.4592C195.09 12.7593 194.688 12.5106 194.056 12.8089C193.807 12.9273 193.556 13.0705 193.393 13.2857C192.909 13.9256 192.163 14.1432 191.533 14.5471C191.42 14.6191 191.318 14.6663 191.185 14.5511C190.583 14.0288 189.948 13.5424 189.369 12.9953C188.418 12.0962 188.356 11.0507 189.204 10.0548C190.353 8.70459 191.863 7.92788 193.502 7.39434C194.387 7.10637 195.298 6.97199 196.218 7.22876C197.128 7.48313 197.402 8.04786 197.064 8.94216C197.008 9.08934 196.941 9.23573 196.857 9.36691C196.201 10.3756 195.258 10.9763 194.134 11.2819C193.163 11.5459 192.192 11.6778 191.332 10.8563C191.257 11.1459 191.385 11.3115 191.529 11.4595C191.811 11.7482 192.155 11.921 192.547 12.0026C193.345 12.1698 194.126 12.0458 194.89 11.8242C196.42 11.3811 197.547 10.4636 198.02 8.86297C198.345 7.7655 197.938 6.89519 196.926 6.41205C196.414 6.16808 195.867 6.06729 195.306 6.05289C193.426 6.0033 191.793 6.76481 190.235 7.7183C188.937 8.51421 187.829 9.5109 187.335 11.0491V11.6842C187.426 11.9266 187.41 12.1994 187.57 12.4266C187.86 12.8361 188.163 13.2249 188.556 13.5416C189.106 13.9848 189.682 14.3895 190.254 14.8023C190.522 14.9951 190.515 15.0335 190.219 15.187C189.508 15.5558 188.851 16.0014 188.323 16.6189C187.871 17.1492 187.648 17.754 187.891 18.4515C188.016 18.8114 188.317 19.0602 188.664 19.109C188.792 19.1266 188.903 19.1386 189.049 19.1498C189.222 19.1634 189.362 19.1682 189.514 19.1362C189.852 19.0658 190.176 18.9466 190.475 18.7578C191.603 18.0443 192.11 16.7093 191.727 15.3926C191.668 15.1918 191.678 15.0791 191.869 14.9855C192.088 14.8791 192.295 14.7511 192.56 14.6031C192.508 14.8703 192.463 15.0727 192.431 15.2782C192.328 15.947 192.37 16.5981 192.725 17.1908C193.015 17.6764 193.517 17.6908 193.818 17.214C193.998 16.9269 194.129 16.6077 194.282 16.3037L194.441 16.8453L194.439 16.8445ZM189.548 18.1427C189.122 18.2235 188.935 18.0579 188.963 17.6132C188.987 17.2396 189.165 16.9364 189.406 16.6677C189.795 16.2349 190.268 15.9102 190.753 15.6046C191.133 15.3654 191.136 15.3678 191.162 15.8054C191.167 15.8846 191.169 15.9638 191.17 15.9982C191.165 17.0444 190.447 17.9723 189.546 18.1427H189.548ZM194.589 13.752C194.397 14.5639 194.091 15.3342 193.758 16.0941C193.695 16.2397 193.637 16.4821 193.44 16.4397C193.263 16.4013 193.277 16.1645 193.257 15.9982C193.246 15.907 193.255 15.8134 193.255 15.7206C193.268 14.9519 193.545 14.2816 194.002 13.6824C194.057 13.6112 194.131 13.5504 194.206 13.5024C194.312 13.4352 194.425 13.3185 194.557 13.3953C194.71 13.484 194.617 13.6304 194.588 13.752H194.589ZM197.09 16.4013C197.29 16.1573 197.49 15.9142 197.69 15.6702C197.718 16.0949 197.451 16.2869 197.09 16.4013ZM199.641 15.8566C199.581 15.8822 199.521 15.919 199.46 15.8742C199.407 15.8358 199.432 15.7798 199.448 15.7302C199.562 15.363 199.729 15.0327 200.082 14.7575C200.154 15.3438 199.998 15.703 199.641 15.8566Z" fill="white"/>
<path d="M225 30C233.284 30 240 23.2843 240 15C240 6.71573 233.284 0 225 0C216.716 0 210 6.71573 210 15C210 23.2843 216.716 30 225 30Z" fill="black"/>
<path d="M220.507 19.3393C220.503 20.3706 220.187 21.2885 218.91 21.9174L218.706 21.6401C219.339 21.3296 219.716 20.9526 219.925 20.5073L218.781 20.6167L218.726 20.2964L220.038 20.2065C220.091 20.0288 220.122 19.8393 220.136 19.6401H218.91V19.3393H220.507ZM221.413 18.9839V20.3823H221.956V20.687H221.413V22.4799H221.042V18.9839H221.413ZM225.171 18.9839V22.4839H224.816V18.9839H225.171ZM224.48 19.062V22.3042H224.128V20.6284H223.691V20.2964H224.128V19.062H224.48ZM223.785 19.4135V19.7182H223.515V21.2807C223.634 21.2729 223.749 21.2592 223.855 21.2456L223.882 21.5151C223.327 21.6245 222.601 21.6401 222.148 21.6401L222.105 21.3276L222.449 21.3237V19.7182H222.179V19.4135H223.785ZM222.785 21.3198C222.911 21.3159 223.042 21.312 223.171 21.3042V19.7182H222.785V21.3198ZM225.722 22.1518V21.8393L226.702 20.851C227.011 20.5268 227.167 20.3471 227.167 20.101C227.167 19.8237 226.941 19.644 226.644 19.644C226.331 19.644 226.128 19.8432 226.128 20.144H225.722C225.718 19.6284 226.113 19.2846 226.652 19.2846C227.199 19.2846 227.574 19.6284 227.577 20.0893C227.574 20.4057 227.425 20.6557 226.894 21.1792L226.32 21.7612V21.7846H227.624V22.1518H225.722ZM227.976 21.601V21.2534L229.226 19.3237H229.757V21.2378H230.144V21.601H229.757V22.1518H229.351V21.601H227.976ZM228.429 21.2378H229.351V19.8354H229.32L228.429 21.2143V21.2378Z" fill="white"/>
<g clip-path="url(#clip0_121_1290)">
<path d="M231.931 11.43C232.286 11.6508 232.523 12.0169 232.523 12.4359C232.523 12.7126 232.428 12.9945 232.238 13.1953C232.023 13.4224 231.707 13.508 231.417 13.5782C231.21 13.6277 230.97 13.658 230.773 13.7391C230.558 13.8279 230.337 13.9656 230.337 14.2385H232.568V14.985H229.508V14.3459C229.508 13.9527 229.687 13.5878 230.075 13.3156C230.36 13.1161 230.696 13.0106 231.03 12.9436C231.336 12.8819 231.732 12.8497 231.732 12.4404C231.732 12.0414 231.241 11.9146 230.91 11.9346C230.527 11.9571 230.256 12.1109 230.052 12.3348L229.505 11.8277C229.796 11.4763 230.34 11.1964 230.91 11.1919C231.285 11.188 231.646 11.253 231.931 11.43Z" fill="#084FFF"/>
<path d="M232.789 13.3497C232.674 13.5003 232.571 13.6992 232.664 13.9946C232.737 14.1612 232.865 14.3247 233.219 14.3247H234.747V14.9856H235.539V14.3247H236.187V13.6541H235.539C235.539 13.6541 235.539 11.7364 235.539 11.7338C235.539 11.4448 235.319 11.2312 235.023 11.2029C234.778 11.179 234.514 11.2672 234.347 11.4738L232.789 13.3497ZM234.747 12.0343V13.6541H233.397L234.747 12.0343Z" fill="#084FFF"/>
<path d="M224.888 12.858H222.856C222.856 12.858 222.856 12.4893 222.856 12.4262C222.856 12.1386 222.967 11.9867 223.26 11.9867H225.032V11.2402H223.125C222.431 11.2402 222.064 11.6585 222.064 12.2821V14.9856H222.856V13.5306H224.889V12.858H224.888Z" fill="white"/>
<path d="M229.117 12.8613C229.072 12.4546 228.862 12.026 228.592 11.7525C228.244 11.4004 227.773 11.1778 227.243 11.1778C226.201 11.1778 225.358 12.0453 225.358 13.109C225.358 13.8021 225.72 14.4071 226.258 14.7469C226.557 14.938 226.905 15.0313 227.247 15.0313C227.765 15.0313 228.253 14.8119 228.596 14.4528L228.034 13.9495C227.833 14.1464 227.545 14.2745 227.245 14.2752C226.946 14.2745 226.637 14.1464 226.431 13.9302C226.317 13.8099 226.232 13.6734 226.177 13.5299H229.084C229.084 13.5306 229.161 13.25 229.117 12.8613ZM226.124 12.8606C226.17 12.6496 226.273 12.4494 226.43 12.2847C226.799 11.8992 227.38 11.8387 227.803 12.0826C228.113 12.2615 228.298 12.5575 228.364 12.8606H226.124Z" fill="white"/>
<path d="M216.007 14.3388C215.342 14.3376 214.804 13.7886 214.803 13.1103C214.804 12.432 215.342 11.8831 216.007 11.8818C216.324 11.8824 216.612 12.0079 216.827 12.2119L217.41 11.6894C217.052 11.3213 216.556 11.0928 216.007 11.0928C214.914 11.0928 214.029 11.9957 214.029 13.1097C214.029 14.2237 214.914 15.1265 216.007 15.1265C216.552 15.1265 217.045 14.9019 217.402 14.5383L216.869 13.9649C216.651 14.1953 216.345 14.3388 216.007 14.3388Z" fill="white"/>
<path d="M220.494 11.2434V11.6379C220.262 11.3483 219.812 11.1835 219.406 11.1835C218.364 11.1835 217.519 12.0465 217.519 13.111C217.519 14.1677 218.357 15.0255 219.381 15.0255C219.786 15.0255 220.219 14.9097 220.494 14.5757V14.9862H221.289V11.2434H220.494ZM219.404 14.2745C218.771 14.2745 218.258 13.7506 218.258 13.1045C218.258 12.4584 218.771 11.9345 219.404 11.9345C220.037 11.9345 220.549 12.4584 220.549 13.1045C220.549 13.7506 220.037 14.2745 219.404 14.2745Z" fill="white"/>
</g>
<path d="M255 30C263.284 30 270 23.2843 270 15C270 6.71573 263.284 0 255 0C246.716 0 240 6.71573 240 15C240 23.2843 246.716 30 255 30Z" fill="#7E00FF"/>
<path d="M251.772 14.2657C251.772 13.9713 251.511 13.8141 250.764 13.7087C249.702 13.5616 248.455 13.215 248.455 11.9111C248.455 10.6497 249.691 9.98743 251.002 9.98743C251.783 9.98743 252.508 10.1765 252.975 10.5026C253.132 10.6145 253.238 10.7831 253.27 10.9719C253.303 11.1608 253.259 11.3547 253.148 11.5118C252.942 11.8165 252.628 11.932 252.205 11.7429C251.826 11.5663 251.41 11.48 250.991 11.4907C250.493 11.4907 250.254 11.6903 250.254 11.8904C250.254 12.2055 250.742 12.3108 251.544 12.4156C252.736 12.5735 253.593 13.1414 253.593 14.2449C253.593 15.4541 252.433 16.1793 251.11 16.2003C250.114 16.2211 249.203 16.0112 248.607 15.4748C248.533 15.4128 248.472 15.3367 248.427 15.2509C248.383 15.1652 248.357 15.0716 248.35 14.9755C248.342 14.8795 248.355 14.783 248.386 14.6918C248.417 14.6006 248.466 14.5165 248.531 14.4444C248.667 14.2927 248.854 14.1952 249.058 14.1701C249.261 14.145 249.467 14.194 249.637 14.308C250.035 14.5575 250.498 14.6887 250.97 14.686C251.49 14.6861 251.772 14.5286 251.772 14.2657Z" fill="white"/>
<path d="M255.299 9.98743C255.515 9.98743 255.727 10.051 255.907 10.1701C256.087 10.2892 256.227 10.4585 256.31 10.6565C256.393 10.8546 256.414 11.0725 256.372 11.2828C256.33 11.493 256.226 11.6861 256.073 11.8377C255.92 11.9893 255.725 12.0925 255.512 12.1344C255.3 12.1762 255.08 12.1547 254.88 12.0727C254.68 11.9906 254.509 11.8517 254.388 11.6735C254.268 11.4952 254.204 11.2857 254.204 11.0713C254.207 10.7847 254.323 10.5106 254.528 10.3079C254.732 10.1053 255.009 9.99018 255.299 9.98743Z" fill="white"/>
<path d="M260.282 11.617C259.664 11.617 259.112 12.1844 259.112 13.0044V15.3595C259.112 15.9063 258.711 16.2322 258.169 16.2322C257.626 16.2322 257.225 15.9063 257.225 15.3595V10.8601C257.225 10.3133 257.626 9.98743 258.169 9.98743C258.613 9.98743 258.971 10.2187 259.079 10.5972C259.25 10.4056 259.46 10.2521 259.696 10.147C259.931 10.0418 260.187 9.98745 260.445 9.98743C260.889 9.98743 261.258 10.0608 261.539 10.2501C261.694 10.3655 261.802 10.5308 261.845 10.7173C261.889 10.9037 261.865 11.0993 261.778 11.27C261.594 11.6804 261.149 11.8484 260.878 11.743C260.69 11.6624 260.487 11.6195 260.282 11.617Z" fill="white"/>
<path d="M255.299 12.7338C254.757 12.7338 254.356 13.067 254.356 13.6247V15.3573H254.36C254.382 15.8862 254.772 16.202 255.299 16.202C255.825 16.202 256.215 15.8862 256.237 15.3573H256.241V13.6247C256.241 13.067 255.84 12.7338 255.299 12.7338Z" fill="white"/>
<path d="M249.661 19.3393V19.7143C249.661 20.1674 249.661 20.6596 249.532 21.4057L249.154 21.3706C249.294 20.6714 249.294 20.1557 249.294 19.7143V19.644H247.232V19.3393H249.661ZM250.079 21.6792V21.9878H246.888V21.6792H250.079ZM253.185 20.1362V20.437H250.751V19.1557H251.122V20.1362H253.185ZM253.548 20.9214V21.226H252.114V22.4839H251.747V21.226H250.345V20.9214H253.548ZM257.005 21.7417V22.0503H253.802V21.7417H255.212V21.0229H254.169V19.2221H254.54V19.8237H256.259V19.2221H256.626V21.0229H255.579V21.7417H257.005ZM254.54 20.7221H256.259V20.1245H254.54V20.7221ZM260.095 20.644V20.9487H257.657V19.2964H260.064V19.601H258.025V20.644H260.095ZM260.462 21.7143V22.0229H257.259V21.7143H260.462ZM261.798 22.1909C261.263 22.1909 260.861 21.8628 260.841 21.4135H261.259C261.282 21.6557 261.513 21.8315 261.798 21.8315C262.142 21.8315 262.388 21.5815 262.388 21.2456C262.388 20.9018 262.134 20.6518 261.779 20.6479C261.552 20.6479 261.38 20.7221 261.282 20.8979H260.876L261.06 19.3237H262.661V19.6909H261.415L261.322 20.4839H261.349C261.466 20.3706 261.665 20.2924 261.88 20.2924C262.411 20.2924 262.806 20.687 262.806 21.2339C262.806 21.7924 262.388 22.1909 261.798 22.1909Z" fill="white"/>
<defs>
<clipPath id="clip0_121_1290">
<rect width="22.158" height="4.03374" fill="white" transform="translate(214.029 11.0928)"/>
</clipPath>
</defs>
</svg>
